<mxfile host="app.diagrams.net" modified="2023-08-20T21:31:50.857Z" agent="Mozilla/5.0 (Macintosh; Intel Mac OS X 10_15_7) AppleWebKit/605.1.15 (KHTML, like Gecko) Version/16.6 Safari/605.1.15" etag="BBE-fD8btBwQkr2vnfB5" version="21.6.8" type="github">
  <diagram name="Deployment Diagram" id="iqRgRUoNd8ZWk3QaGd8S">
    <mxGraphModel dx="2624" dy="1271" grid="1" gridSize="10" guides="1" tooltips="1" connect="1" arrows="1" fold="1" page="1" pageScale="1" pageWidth="850" pageHeight="1100" math="0" shadow="0">
      <root>
        <mxCell id="0" />
        <mxCell id="1" parent="0" />
        <mxCell id="lchy_4k3PPyDHO5jT9Oi-74" value="" style="group;aspect=fixed;" vertex="1" connectable="0" parent="1">
          <mxGeometry x="-475" y="30" width="1030.04" height="1010" as="geometry" />
        </mxCell>
        <mxCell id="lchy_4k3PPyDHO5jT9Oi-39" value="" style="group" vertex="1" connectable="0" parent="lchy_4k3PPyDHO5jT9Oi-74">
          <mxGeometry x="140.27782101167315" y="200.39682539682542" width="691.3692607003892" height="753.4920634920636" as="geometry" />
        </mxCell>
        <mxCell id="lchy_4k3PPyDHO5jT9Oi-7" value="AWS Cloud" style="outlineConnect=0;gradientColor=none;html=1;whiteSpace=wrap;fontSize=12;fontStyle=0;shape=mxgraph.aws4.group;grIcon=mxgraph.aws4.group_aws_cloud;strokeColor=#AAB7B8;fillColor=none;verticalAlign=top;align=left;spacingLeft=30;fontColor=#AAB7B8;dashed=0;rounded=1;" vertex="1" parent="lchy_4k3PPyDHO5jT9Oi-39">
          <mxGeometry y="144.2857142857143" width="691.3692607003892" height="609.2063492063493" as="geometry" />
        </mxCell>
        <mxCell id="lchy_4k3PPyDHO5jT9Oi-6" value="AWS Region" style="outlineConnect=0;gradientColor=none;html=1;whiteSpace=wrap;fontSize=12;fontStyle=0;shape=mxgraph.aws4.group;grIcon=mxgraph.aws4.group_region;strokeColor=#879196;fillColor=none;verticalAlign=top;align=left;spacingLeft=30;fontColor=#879196;dashed=1;rounded=1;" vertex="1" parent="lchy_4k3PPyDHO5jT9Oi-39">
          <mxGeometry x="10.917622412451363" y="168.33333333333334" width="676.8124308171208" height="577.1428571428572" as="geometry" />
        </mxCell>
        <mxCell id="lchy_4k3PPyDHO5jT9Oi-8" value="Subnet" style="outlineConnect=0;gradientColor=none;html=1;whiteSpace=wrap;fontSize=12;fontStyle=0;shape=mxgraph.aws4.group;grIcon=mxgraph.aws4.group_subnet;strokeColor=#879196;fillColor=none;verticalAlign=top;align=left;spacingLeft=30;fontColor=#879196;dashed=0;rounded=1;" vertex="1" parent="lchy_4k3PPyDHO5jT9Oi-39">
          <mxGeometry x="32.75286723735409" y="192.38095238095238" width="640.4283719844359" height="537.063492063492" as="geometry" />
        </mxCell>
        <mxCell id="lchy_4k3PPyDHO5jT9Oi-58" style="edgeStyle=orthogonalEdgeStyle;rounded=1;orthogonalLoop=1;jettySize=auto;html=1;" edge="1" parent="lchy_4k3PPyDHO5jT9Oi-39" source="lchy_4k3PPyDHO5jT9Oi-38" target="lchy_4k3PPyDHO5jT9Oi-21">
          <mxGeometry relative="1" as="geometry">
            <Array as="points">
              <mxPoint x="248.49214007782106" y="541.0714285714286" />
              <mxPoint x="248.49214007782106" y="625.2380952380953" />
              <mxPoint x="622.8335252918289" y="625.2380952380953" />
            </Array>
          </mxGeometry>
        </mxCell>
        <mxCell id="lchy_4k3PPyDHO5jT9Oi-70" style="edgeStyle=orthogonalEdgeStyle;rounded=1;orthogonalLoop=1;jettySize=auto;html=1;startArrow=classic;startFill=1;" edge="1" parent="lchy_4k3PPyDHO5jT9Oi-39" source="lchy_4k3PPyDHO5jT9Oi-38" target="lchy_4k3PPyDHO5jT9Oi-60">
          <mxGeometry relative="1" as="geometry">
            <Array as="points">
              <mxPoint x="208.41276264591443" y="472.93650793650795" />
              <mxPoint x="585.1589105058366" y="472.93650793650795" />
            </Array>
          </mxGeometry>
        </mxCell>
        <mxCell id="lchy_4k3PPyDHO5jT9Oi-38" value="Amazon EC2&lt;br&gt;" style="outlineConnect=0;fontColor=#232F3E;gradientColor=none;strokeColor=#ffffff;fillColor=#232F3E;dashed=0;verticalLabelPosition=middle;verticalAlign=bottom;align=center;html=1;whiteSpace=wrap;fontSize=10;fontStyle=1;spacing=3;shape=mxgraph.aws4.productIcon;prIcon=mxgraph.aws4.ec2;rounded=1;" vertex="1" parent="lchy_4k3PPyDHO5jT9Oi-39">
          <mxGeometry x="136.27312200605272" y="496.984126984127" width="74.49096411586684" height="88.17460317460318" as="geometry" />
        </mxCell>
        <mxCell id="lchy_4k3PPyDHO5jT9Oi-41" value="" style="edgeStyle=orthogonalEdgeStyle;rounded=1;orthogonalLoop=1;jettySize=auto;html=1;" edge="1" parent="lchy_4k3PPyDHO5jT9Oi-39" source="lchy_4k3PPyDHO5jT9Oi-40" target="lchy_4k3PPyDHO5jT9Oi-38">
          <mxGeometry relative="1" as="geometry" />
        </mxCell>
        <mxCell id="lchy_4k3PPyDHO5jT9Oi-40" value="&amp;lt;&amp;lt;container&amp;gt;&amp;gt;&lt;br&gt;&amp;lt;&amp;lt;service&amp;gt;&amp;gt;&lt;br&gt;Candidate Management" style="outlineConnect=0;fontColor=#232F3E;gradientColor=none;strokeColor=#232F3E;fillColor=#ffffff;dashed=0;verticalLabelPosition=bottom;verticalAlign=top;align=center;html=1;fontSize=12;fontStyle=0;aspect=fixed;shape=mxgraph.aws4.resourceIcon;resIcon=mxgraph.aws4.container_1;rounded=1;" vertex="1" parent="lchy_4k3PPyDHO5jT9Oi-39">
          <mxGeometry x="149.47397343709468" y="641.2698412698413" width="48.095130251269545" height="48.095130251269545" as="geometry" />
        </mxCell>
        <mxCell id="lchy_4k3PPyDHO5jT9Oi-57" style="edgeStyle=orthogonalEdgeStyle;rounded=1;orthogonalLoop=1;jettySize=auto;html=1;" edge="1" parent="lchy_4k3PPyDHO5jT9Oi-39" source="lchy_4k3PPyDHO5jT9Oi-43" target="lchy_4k3PPyDHO5jT9Oi-21">
          <mxGeometry relative="1" as="geometry">
            <Array as="points">
              <mxPoint x="384.7620233463036" y="541.0714285714286" />
              <mxPoint x="384.7620233463036" y="609.2063492063493" />
              <mxPoint x="622.8335252918289" y="609.2063492063493" />
            </Array>
          </mxGeometry>
        </mxCell>
        <mxCell id="lchy_4k3PPyDHO5jT9Oi-69" style="edgeStyle=orthogonalEdgeStyle;rounded=1;orthogonalLoop=1;jettySize=auto;html=1;startArrow=classic;startFill=1;" edge="1" parent="lchy_4k3PPyDHO5jT9Oi-39" source="lchy_4k3PPyDHO5jT9Oi-43" target="lchy_4k3PPyDHO5jT9Oi-60">
          <mxGeometry relative="1" as="geometry">
            <Array as="points">
              <mxPoint x="376.74614785992225" y="521.031746031746" />
              <mxPoint x="376.74614785992225" y="432.8571428571429" />
            </Array>
          </mxGeometry>
        </mxCell>
        <mxCell id="lchy_4k3PPyDHO5jT9Oi-43" value="Amazon EC2&lt;br&gt;" style="outlineConnect=0;fontColor=#232F3E;gradientColor=none;strokeColor=#ffffff;fillColor=#232F3E;dashed=0;verticalLabelPosition=middle;verticalAlign=bottom;align=center;html=1;whiteSpace=wrap;fontSize=10;fontStyle=1;spacing=3;shape=mxgraph.aws4.productIcon;prIcon=mxgraph.aws4.ec2;rounded=1;" vertex="1" parent="lchy_4k3PPyDHO5jT9Oi-39">
          <mxGeometry x="288.57475624729784" y="496.984126984127" width="74.49096411586684" height="88.17460317460318" as="geometry" />
        </mxCell>
        <mxCell id="lchy_4k3PPyDHO5jT9Oi-50" style="edgeStyle=orthogonalEdgeStyle;rounded=1;orthogonalLoop=1;jettySize=auto;html=1;" edge="1" parent="lchy_4k3PPyDHO5jT9Oi-39" source="lchy_4k3PPyDHO5jT9Oi-44" target="lchy_4k3PPyDHO5jT9Oi-43">
          <mxGeometry relative="1" as="geometry" />
        </mxCell>
        <mxCell id="lchy_4k3PPyDHO5jT9Oi-44" value="&amp;lt;&amp;lt;container&amp;gt;&amp;gt;&lt;br&gt;&amp;lt;&amp;lt;service&amp;gt;&amp;gt;&lt;br&gt;Company&amp;nbsp;Management" style="outlineConnect=0;fontColor=#232F3E;gradientColor=none;strokeColor=#232F3E;fillColor=#ffffff;dashed=0;verticalLabelPosition=bottom;verticalAlign=top;align=center;html=1;fontSize=12;fontStyle=0;aspect=fixed;shape=mxgraph.aws4.resourceIcon;resIcon=mxgraph.aws4.container_1;rounded=1;" vertex="1" parent="lchy_4k3PPyDHO5jT9Oi-39">
          <mxGeometry x="301.77560767833984" y="641.2698412698413" width="48.095130251269545" height="48.095130251269545" as="geometry" />
        </mxCell>
        <mxCell id="lchy_4k3PPyDHO5jT9Oi-56" style="edgeStyle=orthogonalEdgeStyle;rounded=1;orthogonalLoop=1;jettySize=auto;html=1;" edge="1" parent="lchy_4k3PPyDHO5jT9Oi-39" source="lchy_4k3PPyDHO5jT9Oi-45" target="lchy_4k3PPyDHO5jT9Oi-21">
          <mxGeometry relative="1" as="geometry">
            <Array as="points">
              <mxPoint x="521.0319066147861" y="537.063492063492" />
              <mxPoint x="521.0319066147861" y="537.063492063492" />
            </Array>
          </mxGeometry>
        </mxCell>
        <mxCell id="lchy_4k3PPyDHO5jT9Oi-45" value="Amazon EC2&lt;br&gt;" style="outlineConnect=0;fontColor=#232F3E;gradientColor=none;strokeColor=#ffffff;fillColor=#232F3E;dashed=0;verticalLabelPosition=middle;verticalAlign=bottom;align=center;html=1;whiteSpace=wrap;fontSize=10;fontStyle=1;spacing=3;shape=mxgraph.aws4.productIcon;prIcon=mxgraph.aws4.ec2;rounded=1;" vertex="1" parent="lchy_4k3PPyDHO5jT9Oi-39">
          <mxGeometry x="424.8446395157804" y="496.984126984127" width="74.49096411586684" height="88.17460317460318" as="geometry" />
        </mxCell>
        <mxCell id="lchy_4k3PPyDHO5jT9Oi-51" style="edgeStyle=orthogonalEdgeStyle;rounded=1;orthogonalLoop=1;jettySize=auto;html=1;" edge="1" parent="lchy_4k3PPyDHO5jT9Oi-39" source="lchy_4k3PPyDHO5jT9Oi-46" target="lchy_4k3PPyDHO5jT9Oi-45">
          <mxGeometry relative="1" as="geometry" />
        </mxCell>
        <mxCell id="lchy_4k3PPyDHO5jT9Oi-46" value="&amp;lt;&amp;lt;container&amp;gt;&amp;gt;&lt;br&gt;&amp;lt;&amp;lt;service&amp;gt;&amp;gt;&lt;br&gt;Projects Management" style="outlineConnect=0;fontColor=#232F3E;gradientColor=none;strokeColor=#232F3E;fillColor=#ffffff;dashed=0;verticalLabelPosition=bottom;verticalAlign=top;align=center;html=1;fontSize=12;fontStyle=0;aspect=fixed;shape=mxgraph.aws4.resourceIcon;resIcon=mxgraph.aws4.container_1;rounded=1;" vertex="1" parent="lchy_4k3PPyDHO5jT9Oi-39">
          <mxGeometry x="438.0454909468224" y="641.2698412698413" width="48.095130251269545" height="48.095130251269545" as="geometry" />
        </mxCell>
        <mxCell id="lchy_4k3PPyDHO5jT9Oi-21" value="Amazon RDS" style="outlineConnect=0;fontColor=#232F3E;gradientColor=none;strokeColor=#ffffff;fillColor=#232F3E;dashed=0;verticalLabelPosition=middle;verticalAlign=bottom;align=center;html=1;whiteSpace=wrap;fontSize=10;fontStyle=1;spacing=3;shape=mxgraph.aws4.productIcon;prIcon=mxgraph.aws4.rds;rounded=1;" vertex="1" parent="lchy_4k3PPyDHO5jT9Oi-39">
          <mxGeometry x="585.1589105058366" y="496.984126984127" width="74.49153089494166" height="90.47515873015874" as="geometry" />
        </mxCell>
        <mxCell id="lchy_4k3PPyDHO5jT9Oi-72" style="edgeStyle=orthogonalEdgeStyle;rounded=1;orthogonalLoop=1;jettySize=auto;html=1;" edge="1" parent="lchy_4k3PPyDHO5jT9Oi-39" source="lchy_4k3PPyDHO5jT9Oi-60" target="lchy_4k3PPyDHO5jT9Oi-21">
          <mxGeometry relative="1" as="geometry" />
        </mxCell>
        <mxCell id="lchy_4k3PPyDHO5jT9Oi-60" value="Amazon EC2&lt;br&gt;" style="outlineConnect=0;fontColor=#232F3E;gradientColor=none;strokeColor=#ffffff;fillColor=#232F3E;dashed=0;verticalLabelPosition=middle;verticalAlign=bottom;align=center;html=1;whiteSpace=wrap;fontSize=10;fontStyle=1;spacing=3;shape=mxgraph.aws4.productIcon;prIcon=mxgraph.aws4.ec2;rounded=1;" vertex="1" parent="lchy_4k3PPyDHO5jT9Oi-39">
          <mxGeometry x="577.1462737570255" y="363.11904761904765" width="74.49096411586684" height="88.17460317460318" as="geometry" />
        </mxCell>
        <mxCell id="lchy_4k3PPyDHO5jT9Oi-66" style="edgeStyle=orthogonalEdgeStyle;rounded=1;orthogonalLoop=1;jettySize=auto;html=1;" edge="1" parent="lchy_4k3PPyDHO5jT9Oi-39" source="lchy_4k3PPyDHO5jT9Oi-61" target="lchy_4k3PPyDHO5jT9Oi-60">
          <mxGeometry relative="1" as="geometry">
            <Array as="points">
              <mxPoint x="561.1112840466927" y="280.55555555555554" />
              <mxPoint x="561.1112840466927" y="407.2063492063492" />
            </Array>
          </mxGeometry>
        </mxCell>
        <mxCell id="lchy_4k3PPyDHO5jT9Oi-61" value="&amp;lt;&amp;lt;container&amp;gt;&amp;gt;&lt;br&gt;&amp;lt;&amp;lt;service&amp;gt;&amp;gt;&lt;br&gt;Interview Systems" style="outlineConnect=0;fontColor=#232F3E;gradientColor=none;strokeColor=#232F3E;fillColor=#ffffff;dashed=0;verticalLabelPosition=bottom;verticalAlign=top;align=center;html=1;fontSize=12;fontStyle=0;aspect=fixed;shape=mxgraph.aws4.resourceIcon;resIcon=mxgraph.aws4.container_1;rounded=1;" vertex="1" parent="lchy_4k3PPyDHO5jT9Oi-39">
          <mxGeometry x="590.3471251880676" y="240.4761904761905" width="48.095130251269545" height="48.095130251269545" as="geometry" />
        </mxCell>
        <mxCell id="1KZvUayToTeSjLN-kN41-1" value="Client - Candidate" style="outlineConnect=0;fontColor=#232F3E;gradientColor=none;strokeColor=#232F3E;fillColor=#ffffff;dashed=0;verticalLabelPosition=bottom;verticalAlign=top;align=center;html=1;fontSize=12;fontStyle=0;aspect=fixed;shape=mxgraph.aws4.resourceIcon;resIcon=mxgraph.aws4.client;rounded=1;" parent="lchy_4k3PPyDHO5jT9Oi-74" vertex="1">
          <mxGeometry x="444.8810894941634" width="48.095130251269545" height="48.095130251269545" as="geometry" />
        </mxCell>
        <mxCell id="1KZvUayToTeSjLN-kN41-2" value="Client - Company/Candidate" style="outlineConnect=0;fontColor=#232F3E;gradientColor=none;strokeColor=#232F3E;fillColor=#ffffff;dashed=0;verticalLabelPosition=bottom;verticalAlign=top;align=center;html=1;fontSize=12;fontStyle=0;aspect=fixed;shape=mxgraph.aws4.resourceIcon;resIcon=mxgraph.aws4.mobile_client;rounded=1;" parent="lchy_4k3PPyDHO5jT9Oi-74" vertex="1">
          <mxGeometry x="566.2975554863814" width="48.095130251269545" height="48.095130251269545" as="geometry" />
        </mxCell>
        <mxCell id="1KZvUayToTeSjLN-kN41-3" value="Client - Company" style="outlineConnect=0;fontColor=#232F3E;gradientColor=none;strokeColor=#232F3E;fillColor=#ffffff;dashed=0;verticalLabelPosition=bottom;verticalAlign=top;align=center;html=1;fontSize=12;fontStyle=0;aspect=fixed;shape=mxgraph.aws4.resourceIcon;resIcon=mxgraph.aws4.client;rounded=1;" parent="lchy_4k3PPyDHO5jT9Oi-74" vertex="1">
          <mxGeometry x="309.789539922179" width="48.095130251269545" height="48.095130251269545" as="geometry" />
        </mxCell>
        <mxCell id="lchy_4k3PPyDHO5jT9Oi-3" value="" style="edgeStyle=orthogonalEdgeStyle;rounded=1;orthogonalLoop=1;jettySize=auto;html=1;startArrow=classic;startFill=1;endArrow=none;endFill=0;" edge="1" parent="lchy_4k3PPyDHO5jT9Oi-74" source="lchy_4k3PPyDHO5jT9Oi-2" target="1KZvUayToTeSjLN-kN41-1">
          <mxGeometry relative="1" as="geometry" />
        </mxCell>
        <mxCell id="lchy_4k3PPyDHO5jT9Oi-2" value="Internet" style="outlineConnect=0;fontColor=#232F3E;gradientColor=none;strokeColor=#232F3E;fillColor=#ffffff;dashed=0;verticalLabelPosition=bottom;verticalAlign=top;align=center;html=1;fontSize=12;fontStyle=0;aspect=fixed;shape=mxgraph.aws4.resourceIcon;resIcon=mxgraph.aws4.internet;rounded=1;" vertex="1" parent="lchy_4k3PPyDHO5jT9Oi-74">
          <mxGeometry x="444.8810894941634" y="96.19047619047619" width="48.095130251269545" height="48.095130251269545" as="geometry" />
        </mxCell>
        <mxCell id="lchy_4k3PPyDHO5jT9Oi-5" style="edgeStyle=orthogonalEdgeStyle;rounded=1;orthogonalLoop=1;jettySize=auto;html=1;" edge="1" parent="lchy_4k3PPyDHO5jT9Oi-74" source="1KZvUayToTeSjLN-kN41-2" target="lchy_4k3PPyDHO5jT9Oi-2">
          <mxGeometry relative="1" as="geometry">
            <Array as="points">
              <mxPoint x="589.1668482490272" y="120.23809523809526" />
            </Array>
          </mxGeometry>
        </mxCell>
        <mxCell id="lchy_4k3PPyDHO5jT9Oi-4" style="edgeStyle=orthogonalEdgeStyle;rounded=1;orthogonalLoop=1;jettySize=auto;html=1;" edge="1" parent="lchy_4k3PPyDHO5jT9Oi-74" source="1KZvUayToTeSjLN-kN41-3" target="lchy_4k3PPyDHO5jT9Oi-2">
          <mxGeometry relative="1" as="geometry">
            <Array as="points">
              <mxPoint x="332.6588326848249" y="120.23809523809526" />
            </Array>
          </mxGeometry>
        </mxCell>
        <mxCell id="lchy_4k3PPyDHO5jT9Oi-25" style="edgeStyle=orthogonalEdgeStyle;rounded=1;orthogonalLoop=1;jettySize=auto;html=1;endArrow=none;endFill=0;startArrow=classic;startFill=1;" edge="1" parent="lchy_4k3PPyDHO5jT9Oi-74" source="lchy_4k3PPyDHO5jT9Oi-19" target="lchy_4k3PPyDHO5jT9Oi-2">
          <mxGeometry relative="1" as="geometry">
            <Array as="points">
              <mxPoint x="380.75408560311286" y="216.42857142857144" />
              <mxPoint x="468.9287159533074" y="216.42857142857144" />
            </Array>
          </mxGeometry>
        </mxCell>
        <mxCell id="lchy_4k3PPyDHO5jT9Oi-26" style="edgeStyle=orthogonalEdgeStyle;rounded=1;orthogonalLoop=1;jettySize=auto;html=1;startArrow=classic;startFill=1;endArrow=none;endFill=0;" edge="1" parent="lchy_4k3PPyDHO5jT9Oi-74" source="lchy_4k3PPyDHO5jT9Oi-22" target="lchy_4k3PPyDHO5jT9Oi-2">
          <mxGeometry relative="1" as="geometry">
            <Array as="points">
              <mxPoint x="553.8969961089493" y="216.42857142857144" />
              <mxPoint x="468.9287159533074" y="216.42857142857144" />
            </Array>
          </mxGeometry>
        </mxCell>
        <mxCell id="lchy_4k3PPyDHO5jT9Oi-36" value="Authentication and Authorization modules are contained here" style="shape=note;whiteSpace=wrap;html=1;backgroundOutline=1;darkOpacity=0.05;rounded=1;" vertex="1" parent="lchy_4k3PPyDHO5jT9Oi-74">
          <mxGeometry y="448.8888888888889" width="128.25400778210118" height="80.15873015873017" as="geometry" />
        </mxCell>
        <mxCell id="lchy_4k3PPyDHO5jT9Oi-42" style="edgeStyle=orthogonalEdgeStyle;rounded=1;orthogonalLoop=1;jettySize=auto;html=1;" edge="1" parent="lchy_4k3PPyDHO5jT9Oi-74" source="lchy_4k3PPyDHO5jT9Oi-17" target="lchy_4k3PPyDHO5jT9Oi-40">
          <mxGeometry relative="1" as="geometry">
            <Array as="points">
              <mxPoint x="212.42070038910506" y="865.7142857142858" />
            </Array>
          </mxGeometry>
        </mxCell>
        <mxCell id="lchy_4k3PPyDHO5jT9Oi-54" style="edgeStyle=orthogonalEdgeStyle;rounded=1;orthogonalLoop=1;jettySize=auto;html=1;" edge="1" parent="lchy_4k3PPyDHO5jT9Oi-74" source="lchy_4k3PPyDHO5jT9Oi-17" target="lchy_4k3PPyDHO5jT9Oi-44">
          <mxGeometry relative="1" as="geometry">
            <Array as="points">
              <mxPoint x="116.23019455252917" y="587.5634920634922" />
              <mxPoint x="116.23019455252917" y="985.9523809523811" />
              <mxPoint x="404.8017120622568" y="985.9523809523811" />
              <mxPoint x="404.8017120622568" y="865.7142857142858" />
            </Array>
          </mxGeometry>
        </mxCell>
        <mxCell id="lchy_4k3PPyDHO5jT9Oi-55" style="edgeStyle=orthogonalEdgeStyle;rounded=1;orthogonalLoop=1;jettySize=auto;html=1;" edge="1" parent="lchy_4k3PPyDHO5jT9Oi-74" source="lchy_4k3PPyDHO5jT9Oi-17" target="lchy_4k3PPyDHO5jT9Oi-46">
          <mxGeometry relative="1" as="geometry">
            <Array as="points">
              <mxPoint x="68.13494163424124" y="587.5634920634922" />
              <mxPoint x="68.13494163424124" y="1010.0000000000001" />
              <mxPoint x="533.055719844358" y="1010.0000000000001" />
              <mxPoint x="533.055719844358" y="865.7142857142858" />
            </Array>
          </mxGeometry>
        </mxCell>
        <mxCell id="lchy_4k3PPyDHO5jT9Oi-67" style="edgeStyle=orthogonalEdgeStyle;rounded=1;orthogonalLoop=1;jettySize=auto;html=1;" edge="1" parent="lchy_4k3PPyDHO5jT9Oi-74" source="lchy_4k3PPyDHO5jT9Oi-17" target="lchy_4k3PPyDHO5jT9Oi-61">
          <mxGeometry relative="1" as="geometry">
            <Array as="points">
              <mxPoint x="214.82546303501945" y="513.0158730158731" />
              <mxPoint x="669.3256031128404" y="513.0158730158731" />
              <mxPoint x="669.3256031128404" y="464.92063492063494" />
            </Array>
          </mxGeometry>
        </mxCell>
        <mxCell id="lchy_4k3PPyDHO5jT9Oi-17" value="Amazon ECR" style="outlineConnect=0;fontColor=#232F3E;gradientColor=none;strokeColor=#ffffff;fillColor=#232F3E;dashed=0;verticalLabelPosition=middle;verticalAlign=bottom;align=center;html=1;whiteSpace=wrap;fontSize=10;fontStyle=1;spacing=3;shape=mxgraph.aws4.productIcon;prIcon=mxgraph.aws4.ecr;rounded=1;" vertex="1" parent="lchy_4k3PPyDHO5jT9Oi-74">
          <mxGeometry x="177.51957852140077" y="541.0714285714286" width="74.49153089494165" height="92.18253968253968" as="geometry" />
        </mxCell>
        <mxCell id="lchy_4k3PPyDHO5jT9Oi-20" value="Elastic Load Balancing" style="outlineConnect=0;fontColor=#232F3E;gradientColor=none;strokeColor=#ffffff;fillColor=#232F3E;dashed=0;verticalLabelPosition=middle;verticalAlign=bottom;align=center;html=1;whiteSpace=wrap;fontSize=10;fontStyle=1;spacing=3;shape=mxgraph.aws4.productIcon;prIcon=mxgraph.aws4.elastic_load_balancing;rounded=1;" vertex="1" parent="lchy_4k3PPyDHO5jT9Oi-74">
          <mxGeometry x="428.3683859922179" y="400.79365079365084" width="74.49153089494165" height="101.90579365079365" as="geometry" />
        </mxCell>
        <mxCell id="lchy_4k3PPyDHO5jT9Oi-28" style="edgeStyle=orthogonalEdgeStyle;rounded=1;orthogonalLoop=1;jettySize=auto;html=1;" edge="1" parent="lchy_4k3PPyDHO5jT9Oi-74" source="lchy_4k3PPyDHO5jT9Oi-19" target="lchy_4k3PPyDHO5jT9Oi-20">
          <mxGeometry relative="1" as="geometry">
            <Array as="points">
              <mxPoint x="385.822709900562" y="458.5079365079365" />
            </Array>
          </mxGeometry>
        </mxCell>
        <mxCell id="lchy_4k3PPyDHO5jT9Oi-19" value="Frontend - Company&lt;br&gt;Netlify" style="shape=image;html=1;verticalAlign=top;verticalLabelPosition=bottom;labelBackgroundColor=#ffffff;imageAspect=0;aspect=fixed;image=https://cdn2.iconfinder.com/data/icons/boxicons-logos/24/bxl-netlify-128.png;fontSize=16;rounded=1;" vertex="1" parent="lchy_4k3PPyDHO5jT9Oi-74">
          <mxGeometry x="357.88859835711196" y="240.4761904761905" width="48.095130251269545" height="48.095130251269545" as="geometry" />
        </mxCell>
        <mxCell id="lchy_4k3PPyDHO5jT9Oi-27" style="edgeStyle=orthogonalEdgeStyle;rounded=1;orthogonalLoop=1;jettySize=auto;html=1;" edge="1" parent="lchy_4k3PPyDHO5jT9Oi-74" source="lchy_4k3PPyDHO5jT9Oi-22" target="lchy_4k3PPyDHO5jT9Oi-20">
          <mxGeometry relative="1" as="geometry">
            <Array as="points">
              <mxPoint x="562.7387496757458" y="458.5079365079365" />
            </Array>
          </mxGeometry>
        </mxCell>
        <mxCell id="lchy_4k3PPyDHO5jT9Oi-22" value="Frontend - Candidate&lt;br&gt;Netlify" style="shape=image;html=1;verticalAlign=top;verticalLabelPosition=bottom;labelBackgroundColor=#ffffff;imageAspect=0;aspect=fixed;image=https://cdn2.iconfinder.com/data/icons/boxicons-logos/24/bxl-netlify-128.png;fontSize=16;rounded=1;" vertex="1" parent="lchy_4k3PPyDHO5jT9Oi-74">
          <mxGeometry x="530.1489528750541" y="240.4761904761905" width="48.095130251269545" height="48.095130251269545" as="geometry" />
        </mxCell>
        <mxCell id="lchy_4k3PPyDHO5jT9Oi-47" style="edgeStyle=orthogonalEdgeStyle;rounded=1;orthogonalLoop=1;jettySize=auto;html=1;startArrow=classic;startFill=1;" edge="1" parent="lchy_4k3PPyDHO5jT9Oi-74" source="lchy_4k3PPyDHO5jT9Oi-14" target="lchy_4k3PPyDHO5jT9Oi-43">
          <mxGeometry relative="1" as="geometry" />
        </mxCell>
        <mxCell id="lchy_4k3PPyDHO5jT9Oi-14" value="Amazon EC2&lt;br&gt;" style="outlineConnect=0;fontColor=#232F3E;gradientColor=none;strokeColor=#ffffff;fillColor=#232F3E;dashed=0;verticalLabelPosition=middle;verticalAlign=bottom;align=center;html=1;whiteSpace=wrap;fontSize=10;fontStyle=1;spacing=3;shape=mxgraph.aws4.productIcon;prIcon=mxgraph.aws4.ec2;rounded=1;" vertex="1" parent="lchy_4k3PPyDHO5jT9Oi-74">
          <mxGeometry x="428.852577258971" y="537.063492063492" width="74.49096411586684" height="88.17460317460318" as="geometry" />
        </mxCell>
        <mxCell id="lchy_4k3PPyDHO5jT9Oi-34" value="" style="edgeStyle=orthogonalEdgeStyle;rounded=1;orthogonalLoop=1;jettySize=auto;html=1;" edge="1" parent="lchy_4k3PPyDHO5jT9Oi-74" source="lchy_4k3PPyDHO5jT9Oi-20" target="lchy_4k3PPyDHO5jT9Oi-14">
          <mxGeometry relative="1" as="geometry" />
        </mxCell>
        <mxCell id="lchy_4k3PPyDHO5jT9Oi-32" style="edgeStyle=orthogonalEdgeStyle;rounded=1;orthogonalLoop=1;jettySize=auto;html=1;" edge="1" parent="lchy_4k3PPyDHO5jT9Oi-74" source="lchy_4k3PPyDHO5jT9Oi-16" target="lchy_4k3PPyDHO5jT9Oi-14">
          <mxGeometry relative="1" as="geometry" />
        </mxCell>
        <mxCell id="lchy_4k3PPyDHO5jT9Oi-16" value="&amp;lt;&amp;lt;container&amp;gt;&amp;gt;&lt;br&gt;&amp;lt;&amp;lt;service&amp;gt;&amp;gt;&lt;br&gt;Authorizer" style="outlineConnect=0;fontColor=#232F3E;gradientColor=none;strokeColor=#232F3E;fillColor=#ffffff;dashed=0;verticalLabelPosition=bottom;verticalAlign=top;align=center;html=1;fontSize=12;fontStyle=0;aspect=fixed;shape=mxgraph.aws4.resourceIcon;resIcon=mxgraph.aws4.container_1;rounded=1;" vertex="1" parent="lchy_4k3PPyDHO5jT9Oi-74">
          <mxGeometry x="309.7914831647211" y="557.1031746031747" width="48.095130251269545" height="48.095130251269545" as="geometry" />
        </mxCell>
        <mxCell id="lchy_4k3PPyDHO5jT9Oi-37" style="edgeStyle=orthogonalEdgeStyle;rounded=1;orthogonalLoop=1;jettySize=auto;html=1;" edge="1" parent="lchy_4k3PPyDHO5jT9Oi-74" source="lchy_4k3PPyDHO5jT9Oi-36" target="lchy_4k3PPyDHO5jT9Oi-16">
          <mxGeometry relative="1" as="geometry" />
        </mxCell>
        <mxCell id="lchy_4k3PPyDHO5jT9Oi-48" style="edgeStyle=orthogonalEdgeStyle;rounded=1;orthogonalLoop=1;jettySize=auto;html=1;startArrow=classic;startFill=1;" edge="1" parent="lchy_4k3PPyDHO5jT9Oi-74" source="lchy_4k3PPyDHO5jT9Oi-45" target="lchy_4k3PPyDHO5jT9Oi-14">
          <mxGeometry relative="1" as="geometry">
            <Array as="points">
              <mxPoint x="602.7938365758755" y="657.3015873015873" />
              <mxPoint x="466.523953307393" y="657.3015873015873" />
            </Array>
          </mxGeometry>
        </mxCell>
        <mxCell id="lchy_4k3PPyDHO5jT9Oi-33" style="edgeStyle=orthogonalEdgeStyle;rounded=1;orthogonalLoop=1;jettySize=auto;html=1;" edge="1" parent="lchy_4k3PPyDHO5jT9Oi-74" source="lchy_4k3PPyDHO5jT9Oi-17" target="lchy_4k3PPyDHO5jT9Oi-16">
          <mxGeometry relative="1" as="geometry" />
        </mxCell>
        <mxCell id="lchy_4k3PPyDHO5jT9Oi-49" style="edgeStyle=orthogonalEdgeStyle;rounded=1;orthogonalLoop=1;jettySize=auto;html=1;startArrow=classic;startFill=1;" edge="1" parent="lchy_4k3PPyDHO5jT9Oi-74" source="lchy_4k3PPyDHO5jT9Oi-38" target="lchy_4k3PPyDHO5jT9Oi-14">
          <mxGeometry relative="1" as="geometry">
            <Array as="points">
              <mxPoint x="314.22231906614786" y="657.3015873015873" />
              <mxPoint x="466.523953307393" y="657.3015873015873" />
            </Array>
          </mxGeometry>
        </mxCell>
        <mxCell id="lchy_4k3PPyDHO5jT9Oi-65" style="edgeStyle=orthogonalEdgeStyle;rounded=1;orthogonalLoop=1;jettySize=auto;html=1;" edge="1" parent="lchy_4k3PPyDHO5jT9Oi-74" source="lchy_4k3PPyDHO5jT9Oi-62" target="lchy_4k3PPyDHO5jT9Oi-61">
          <mxGeometry relative="1" as="geometry" />
        </mxCell>
        <mxCell id="lchy_4k3PPyDHO5jT9Oi-62" value="Results Generator&lt;br&gt;Evaluator&lt;br&gt;Scheduler&lt;br&gt;&lt;br&gt;Contained here." style="shape=note;whiteSpace=wrap;html=1;backgroundOutline=1;darkOpacity=0.05;rounded=1;" vertex="1" parent="lchy_4k3PPyDHO5jT9Oi-74">
          <mxGeometry x="901.7859922178988" y="424.8412698412698" width="128.25400778210118" height="80.15873015873017" as="geometry" />
        </mxCell>
      </root>
    </mxGraphModel>
  </diagram>
</mxfile>
